<svg width="4176" height="1446" viewBox="0 0 4176 1446" fill="none" xmlns="http://www.w3.org/2000/svg">
<g clip-path="url(#clip0_282_4439)">
<path d="M4157.79 68.2483C4145.63 47.0878 4128.86 30.4273 4107.48 18.2668C4086.11 6.10623 4062 0.0527344 4035.11 0.0527344C4008.22 0.0527344 3984.11 6.10623 3962.73 18.2668C3941.36 30.4273 3924.59 47.0878 3912.43 68.2483C3900.27 89.4623 3894.22 113.676 3894.22 140.89C3894.22 168.104 3900.27 192.372 3912.43 213.532C3924.59 234.693 3941.36 251.407 3962.73 263.514C3984.11 275.674 4008.22 281.728 4035.11 281.728C4062 281.728 4086.11 275.674 4107.48 263.514C4128.86 251.353 4145.63 234.693 4157.79 213.532C4169.95 192.372 4176 168.158 4176 140.89C4176 113.623 4169.95 89.4087 4157.79 68.2483ZM4123.55 194.782C4114.71 210.425 4102.72 222.8 4087.66 231.8C4072.55 240.853 4055.04 245.353 4035.16 245.353C4015.29 245.353 3998.15 240.853 3982.66 231.8C3967.18 222.8 3955.13 210.425 3946.45 194.782C3937.77 179.14 3933.49 161.194 3933.49 140.89C3933.49 120.587 3937.82 102.694 3946.45 86.998C3955.07 71.3554 3967.18 59.0341 3982.66 49.9807C3998.15 40.9808 4015.61 36.4273 4035.16 36.4273C4054.72 36.4273 4072.55 40.9272 4087.66 49.9807C4102.77 59.0341 4114.71 71.3554 4123.55 86.998C4132.39 102.641 4136.84 120.64 4136.84 140.89C4136.84 161.14 4132.39 179.086 4123.55 194.782Z" fill="#00381B"/>
<path d="M4082.09 142.819C4090.93 135.266 4095.38 125.248 4095.38 112.712C4095.38 98.7304 4090.61 87.8555 4081.02 80.0877C4071.43 72.3736 4058.57 68.4629 4042.34 68.4629H3979.88V209.89H4018.56V154.658H4026.16L4055.63 209.89H4099.29L4065.38 151.551C4071.86 149.676 4077.48 146.73 4082.2 142.712L4082.09 142.819ZM4018.56 97.2304H4035.11C4042.13 97.2304 4047.38 98.7304 4050.86 101.677C4054.34 104.623 4056.11 108.855 4056.11 114.373C4056.11 119.891 4054.34 124.069 4050.86 126.801C4047.38 129.587 4042.13 130.926 4035.11 130.926H4018.56V97.2304Z" fill="#00381B"/>
<path d="M1723.32 335.566C1659.78 299.727 1585.53 281.781 1500.52 281.781C1415.5 281.781 1341.2 299.995 1277.72 336.316C1214.18 372.691 1165 422.619 1130.18 486.154C1095.36 549.689 1077.95 624.473 1077.95 710.508C1077.95 796.542 1095.36 868.809 1130.18 933.309C1165 997.861 1214.18 1048.06 1277.72 1083.9C1341.2 1119.73 1415.5 1137.68 1500.52 1137.68C1585.53 1137.68 1659.78 1119.73 1723.32 1083.9C1786.8 1048.06 1835.98 998.129 1870.85 934.059C1905.67 870.042 1923.08 795.525 1923.08 710.454C1923.08 625.384 1905.67 549.367 1870.85 485.35C1836.03 421.333 1786.85 371.405 1723.32 335.513V335.566ZM1665.67 854.185C1649.76 892.595 1627.75 921.041 1599.62 939.469C1571.44 957.898 1538.39 967.112 1500.52 967.112C1462.64 967.112 1429.59 957.898 1401.41 939.469C1373.23 921.041 1351.21 892.863 1335.36 854.935C1319.45 817.06 1311.52 768.9 1311.52 710.508C1311.52 652.116 1319.45 602.456 1335.36 564.528C1351.21 526.653 1373.23 498.475 1401.41 479.993C1429.59 461.565 1462.59 452.35 1500.52 452.35C1538.44 452.35 1571.44 461.565 1599.62 479.993C1627.8 498.421 1649.82 526.6 1665.67 564.528C1681.53 602.456 1689.51 651.098 1689.51 710.508C1689.51 769.918 1681.59 815.774 1665.67 854.185Z" fill="#00381B"/>
<path d="M2396.33 961.005C2369.7 961.005 2349.18 954.362 2334.88 941.023C2320.52 927.684 2313.35 906.684 2313.35 877.97V35.9453H2085.94V914.077C2085.94 987.629 2107.21 1043.29 2149.69 1081.06C2192.17 1118.82 2253.4 1137.68 2333.33 1137.68C2355.83 1137.68 2377.9 1136.13 2399.38 1133.07C2420.92 1130.02 2442.93 1124.88 2465.43 1117.7V948.683C2452.09 953.826 2439.56 957.148 2427.77 958.648C2415.99 960.201 2405.49 960.951 2396.27 960.951L2396.33 961.005Z" fill="#00381B"/>
<path d="M2898.77 961.005C2872.14 961.005 2851.62 954.362 2837.32 941.023C2822.96 927.684 2815.79 906.684 2815.79 877.97V35.9453H2588.38V914.077C2588.38 987.629 2609.65 1043.29 2652.13 1081.06C2694.61 1118.82 2755.84 1137.68 2835.77 1137.68C2858.27 1137.68 2880.34 1136.13 2901.82 1133.07C2923.36 1130.02 2945.37 1124.88 2967.87 1117.7V948.683C2954.53 953.826 2942 957.148 2930.21 958.648C2918.43 960.201 2907.93 960.951 2898.71 960.951L2898.77 961.005Z" fill="#00381B"/>
<path d="M3639.44 420.851V775.008C3636.11 789.365 3631.67 802.918 3626.36 815.775C3611.52 851.614 3590.79 879.524 3564.17 899.506C3537.49 919.541 3504.76 929.452 3465.81 929.452C3426.87 929.452 3396.87 919.488 3369.76 899.506C3342.65 879.578 3321.92 851.882 3307.56 816.578C3293.21 781.222 3286.03 739.437 3286.03 691.33V301.014H3050.91V691.276C3050.91 725.508 3053.53 758.026 3058.78 788.829C3065.8 830.025 3077.53 868.167 3093.92 903.31C3122.64 964.809 3162.33 1012.97 3213.01 1047.84C3263.69 1082.66 3321.39 1100.02 3385.94 1100.02C3421.72 1100.02 3454.83 1094.4 3484.99 1083.15C3515.26 1071.95 3542.85 1055.72 3568.03 1034.77C3593.1 1013.77 3614.31 987.898 3631.77 957.148H3639.44V1069.27C3639.44 1135.86 3623.31 1187.34 3591.01 1223.72C3558.76 1260.09 3510.92 1278.25 3447.33 1278.25C3401.26 1278.25 3362.31 1268.82 3330.6 1249.86C3298.78 1230.89 3274.73 1202.02 3258.33 1163.02L3050.91 1227.57C3080.64 1304.39 3129.82 1360 3198.44 1394.29C3267.07 1428.57 3350.53 1445.77 3448.88 1445.77C3533.9 1445.77 3607.4 1430.93 3669.38 1401.25C3731.36 1371.52 3778.93 1327.7 3812.25 1269.79C3845.58 1211.88 3862.24 1140.47 3862.24 1055.45V301.014H3639.38V420.905L3639.44 420.851Z" fill="#00381B"/>
<path d="M950.291 678.794C948.256 670.169 945.899 661.598 942.738 653.134C933.899 627.58 919.81 602.616 903.363 581.027C827.614 480.904 706.491 451.761 592.385 428.511C592.171 428.511 591.903 428.404 591.689 428.351C603.207 345.262 597.314 260.621 564.421 178.765C538.815 111.533 491.512 51.052 424.602 20.1953C332.567 -22.6078 227.194 4.44546 166.016 84.748C125.677 136.819 111.267 203.943 119.999 268.442C136.016 396.53 235.229 496.653 345.96 551.188C352.71 554.563 359.674 557.67 366.745 560.67C358.549 578.777 349.817 596.563 340.817 613.973C333.156 628.705 324.157 643.169 314.889 656.83C245.193 759.204 122.57 814.542 -0.0534668 813.578V1000.06C28.1247 999.736 55.4458 997.379 82.9812 993.093C165.266 980.397 244.176 952.165 314.621 905.987C393.799 854.292 457.655 781.007 500.458 697.115C514.333 670.33 527.35 642.634 539.082 614.402C539.94 614.67 540.85 614.938 541.707 615.259C611.028 638.241 685.759 673.544 721.116 732.204C762.312 786.525 744.258 891.041 683.777 933.255L678.366 936.791C677.938 937.112 677.456 937.38 676.866 937.701C673.813 939.201 671.134 940.916 667.867 942.362C658.545 947.023 648.902 951.094 639.045 954.522C595.171 969.469 546.154 971.987 501.637 958.54C491.029 955.272 481.173 948.415 472.28 941.88C455.03 928.594 437.298 910.487 423.905 892.327C423.423 891.738 423.048 891.148 422.727 890.666L422.191 889.863L422.084 889.648C422.298 889.434 283.871 1006.86 283.925 1006.86C284.354 1007.34 285.371 1008.31 285.8 1008.84C313.442 1035.95 341.192 1059.9 373.87 1082.07C397.549 1097.93 423.423 1111.75 450.851 1119.95C503.244 1135.7 559.064 1140.63 613.546 1136.4C655.17 1133.02 697.009 1124.18 736.223 1109.56C775.651 1095.73 812.882 1072.86 843.311 1044.57C941.131 953.344 984.309 808.971 950.934 678.687L950.291 678.901V678.794ZM304.978 231.371C303.585 215.461 310.657 196.979 321.317 186.479C325.924 181.872 330.532 179.086 336.424 178.122C337.71 178.229 338.889 177.961 340.174 178.175C340.871 178.336 341.406 178.229 342.585 178.604C346.603 179.461 350.138 180.64 353.728 182.568C371.352 191.675 389.084 216.371 397.066 236.782C404.834 255.531 410.941 274.871 414.638 294.799C419.62 321.37 420.798 348.048 419.084 374.512C362.513 344.834 307.443 293.352 304.978 231.318V231.371Z" fill="#00381B"/>
<path d="M1077.9 1442.28V1235.93H1122.68V1429.96L1092.84 1405.11H1207V1442.28H1077.95H1077.9Z" fill="#00381B"/>
<path d="M1196.13 1320.2L1215.47 1233.25H1259.66L1231.86 1320.2H1196.13Z" fill="#00381B"/>
<path d="M1416.57 1442.28H1372.38L1365.36 1421.82H1363.59C1359.3 1429.43 1353.41 1435.32 1345.86 1439.55C1338.36 1443.73 1329.63 1445.82 1319.66 1445.82C1304.07 1445.82 1291.59 1441.64 1282.22 1433.23C1272.84 1424.82 1268.18 1413.84 1268.18 1400.18C1268.18 1386.52 1272.68 1376.34 1281.63 1367.82C1290.57 1359.36 1304.82 1353.73 1324.38 1351L1363 1345.16V1337.55C1363 1330.16 1360.96 1324.27 1356.84 1319.98C1352.77 1315.7 1346.61 1313.55 1338.41 1313.55C1331.39 1313.55 1325.66 1315.21 1321.27 1318.54C1316.88 1321.86 1313.72 1326.95 1311.73 1333.75L1272.52 1325.82C1276.43 1311.95 1284.47 1301.34 1296.68 1293.89C1308.89 1286.5 1323.36 1282.75 1340.13 1282.75C1362.36 1282.75 1378.8 1287.95 1389.46 1298.39C1400.07 1308.84 1405.43 1323.04 1405.43 1340.98V1381.64C1405.43 1402.53 1409.12 1422.73 1416.57 1442.23V1442.28ZM1348.64 1412.55C1353.14 1409.71 1356.63 1405.75 1359.2 1400.55C1361.71 1395.41 1363 1389.2 1363 1381.96V1369.7L1335.79 1374.09C1327.22 1375.43 1320.73 1377.95 1316.34 1381.53C1311.95 1385.12 1309.75 1390.37 1309.75 1397.18C1309.75 1403.02 1311.73 1407.78 1315.75 1411.37C1319.77 1414.96 1325.34 1416.78 1332.57 1416.78C1338.84 1416.78 1344.2 1415.39 1348.64 1412.55Z" fill="#00381B"/>
<path d="M1505.23 1445.77C1486.48 1445.77 1471.27 1442.23 1459.59 1435.11C1447.86 1427.98 1440.36 1417.91 1437.04 1404.84L1477.7 1396.64C1479.84 1403.87 1483.43 1409.12 1488.36 1412.45C1493.28 1415.77 1499.71 1417.43 1507.53 1417.43C1514.77 1417.43 1520.39 1415.87 1524.52 1412.77C1528.64 1409.66 1530.68 1405.27 1530.68 1399.59C1530.68 1394.71 1529.34 1390.8 1526.71 1387.86C1524.09 1384.91 1519.86 1382.77 1513.96 1381.43L1482.62 1373.23C1470.14 1370.12 1460.55 1365.04 1453.96 1358.02C1447.32 1351 1444 1341.95 1444 1330.8C1444 1321.27 1446.73 1312.86 1452.2 1305.63C1457.66 1298.39 1465.27 1292.82 1475.02 1288.8C1484.77 1284.79 1496.07 1282.8 1508.98 1282.8C1520.12 1282.8 1530.09 1284.2 1538.98 1287.04C1547.87 1289.88 1555.21 1293.95 1561.05 1299.3C1566.89 1304.66 1570.8 1311.14 1572.78 1318.75L1533.57 1328.13C1531.64 1322.29 1528.37 1318 1523.93 1315.27C1519.43 1312.54 1513.96 1311.2 1507.53 1311.2C1500.68 1311.2 1495.48 1312.54 1491.89 1315.16C1488.3 1317.79 1486.48 1321.75 1486.48 1327C1486.48 1330.7 1487.77 1333.91 1490.28 1336.64C1492.8 1339.38 1497.2 1341.63 1503.46 1343.39L1534.21 1351.27C1542.03 1353.2 1548.84 1356.04 1554.68 1359.73C1560.52 1363.43 1565.07 1368.2 1568.28 1373.93C1571.5 1379.66 1573.1 1386.84 1573.1 1395.46C1573.1 1406.02 1570.37 1415.02 1564.91 1422.52C1559.44 1430.02 1551.62 1435.8 1541.5 1439.77C1531.37 1443.78 1519.27 1445.77 1505.23 1445.77Z" fill="#00381B"/>
<path d="M1661.23 1445.77C1642.48 1445.77 1627.26 1442.23 1615.59 1435.11C1603.85 1427.98 1596.35 1417.91 1593.03 1404.84L1633.69 1396.64C1635.84 1403.87 1639.43 1409.12 1644.35 1412.45C1649.28 1415.77 1655.71 1417.43 1663.53 1417.43C1670.76 1417.43 1676.39 1415.87 1680.51 1412.77C1684.64 1409.66 1686.67 1405.27 1686.67 1399.59C1686.67 1394.71 1685.34 1390.8 1682.71 1387.86C1680.09 1384.91 1675.85 1382.77 1669.96 1381.43L1638.62 1373.23C1626.14 1370.12 1616.55 1365.04 1609.96 1358.02C1603.32 1351 1600 1341.95 1600 1330.8C1600 1321.27 1602.73 1312.86 1608.19 1305.63C1613.66 1298.39 1621.26 1292.82 1631.01 1288.8C1640.76 1284.79 1652.07 1282.8 1664.98 1282.8C1676.12 1282.8 1686.09 1284.2 1694.98 1287.04C1703.87 1289.88 1711.21 1293.95 1717.05 1299.3C1722.89 1304.66 1726.8 1311.14 1728.78 1318.75L1689.57 1328.13C1687.64 1322.29 1684.37 1318 1679.92 1315.27C1675.43 1312.54 1669.96 1311.2 1663.53 1311.2C1656.68 1311.2 1651.48 1312.54 1647.89 1315.16C1644.3 1317.79 1642.48 1321.75 1642.48 1327C1642.48 1330.7 1643.76 1333.91 1646.28 1336.64C1648.8 1339.38 1653.19 1341.63 1659.46 1343.39L1690.21 1351.27C1698.03 1353.2 1704.84 1356.04 1710.67 1359.73C1716.51 1363.43 1721.07 1368.2 1724.28 1373.93C1727.5 1379.66 1729.1 1386.84 1729.1 1395.46C1729.1 1406.02 1726.37 1415.02 1720.91 1422.52C1715.44 1430.02 1707.62 1435.8 1697.5 1439.77C1687.37 1443.78 1675.26 1445.77 1661.23 1445.77Z" fill="#00381B"/>
<path d="M1831.85 1445.77C1815.67 1445.77 1801.53 1442.34 1789.42 1435.53C1777.32 1428.73 1767.94 1419.14 1761.35 1406.87C1754.71 1394.61 1751.39 1380.41 1751.39 1364.45C1751.39 1348.48 1754.71 1333.8 1761.35 1321.7C1768 1309.59 1777.37 1300.11 1789.42 1293.14C1801.53 1286.23 1815.67 1282.75 1831.85 1282.75C1848.03 1282.75 1862.17 1286.18 1874.28 1292.98C1886.39 1299.84 1895.76 1309.32 1902.35 1321.54C1908.99 1333.75 1912.31 1348 1912.31 1364.39C1912.31 1380.78 1908.99 1394.77 1902.35 1406.98C1895.71 1419.19 1886.33 1428.68 1874.28 1435.53C1862.17 1442.34 1848.03 1445.77 1831.85 1445.77ZM1831.85 1413.3C1839.08 1413.3 1845.35 1411.53 1850.71 1408.05C1856.07 1404.52 1860.24 1399.11 1863.3 1391.82C1866.3 1384.48 1867.85 1375.37 1867.85 1364.45C1867.85 1353.52 1866.35 1343.87 1863.3 1336.64C1860.3 1329.41 1856.07 1324.05 1850.71 1320.57C1845.35 1317.04 1839.03 1315.32 1831.85 1315.32C1824.67 1315.32 1818.35 1317.09 1812.99 1320.57C1807.64 1324.11 1803.41 1329.46 1800.41 1336.64C1797.35 1343.87 1795.85 1353.14 1795.85 1364.45C1795.85 1375.75 1797.35 1384.75 1800.41 1391.98C1803.41 1399.21 1807.64 1404.57 1812.99 1408.05C1818.35 1411.59 1824.67 1413.3 1831.85 1413.3Z" fill="#00381B"/>
<path d="M2014.74 1445.77C1999.69 1445.77 1986.4 1442.39 1974.78 1435.69C1963.15 1428.94 1954.05 1419.52 1947.4 1407.3C1940.76 1395.09 1937.44 1380.73 1937.44 1364.12C1937.44 1347.52 1940.76 1333.16 1947.4 1320.95C1954.05 1308.73 1963.15 1299.36 1974.78 1292.71C1986.4 1286.07 1999.58 1282.75 2014.42 1282.75C2032.15 1282.75 2046.88 1286.39 2058.46 1293.73C2070.08 1301.07 2078.33 1312.05 2083.21 1326.68L2045.44 1338.95C2042.71 1330.75 2038.8 1324.75 2033.71 1320.95C2028.62 1317.14 2022.4 1315.21 2014.96 1315.21C2008.53 1315.21 2002.74 1317.04 1997.71 1320.62C1992.62 1324.21 1988.6 1329.68 1985.55 1337.02C1982.55 1344.36 1980.99 1353.36 1980.99 1364.07C1980.99 1374.78 1982.49 1383.89 1985.55 1391.28C1988.55 1398.68 1992.67 1404.19 1997.81 1407.84C2002.96 1411.43 2008.8 1413.25 2015.22 1413.25C2022.62 1413.25 2028.94 1411.27 2034.08 1407.25C2039.22 1403.23 2043.19 1397.07 2045.92 1388.66L2083.37 1400.93C2078.49 1415.55 2070.29 1426.69 2058.78 1434.3C2047.26 1441.91 2032.53 1445.71 2014.58 1445.71L2014.74 1445.77Z" fill="#00381B"/>
<path d="M2132.7 1261.11C2125.47 1261.11 2119.53 1258.64 2114.87 1253.77C2110.21 1248.89 2107.85 1243.11 2107.85 1236.52C2107.85 1229.93 2110.21 1223.98 2114.87 1219.38C2119.53 1214.77 2125.47 1212.52 2132.7 1212.52C2139.94 1212.52 2145.72 1214.82 2150.12 1219.38C2154.51 1223.98 2156.7 1229.66 2156.7 1236.52C2156.7 1243.38 2154.45 1248.89 2149.95 1253.77C2145.45 1258.64 2139.72 1261.11 2132.7 1261.11ZM2110.15 1442.28V1286.29H2153.49V1442.28H2110.15Z" fill="#00381B"/>
<path d="M2333.76 1442.28H2289.56L2282.54 1421.82H2280.77C2276.49 1429.43 2270.6 1435.32 2263.04 1439.55C2255.54 1443.73 2246.81 1445.82 2236.85 1445.82C2221.26 1445.82 2208.78 1441.64 2199.4 1433.23C2190.03 1424.82 2185.36 1413.84 2185.36 1400.18C2185.36 1386.52 2189.86 1376.34 2198.81 1367.82C2207.76 1359.36 2222.01 1353.73 2241.56 1351L2280.19 1345.16V1337.55C2280.19 1330.16 2278.15 1324.27 2274.02 1319.98C2269.95 1315.7 2263.79 1313.55 2255.6 1313.55C2248.58 1313.55 2242.85 1315.21 2238.45 1318.54C2234.06 1321.86 2230.9 1326.95 2228.92 1333.75L2189.7 1325.82C2193.61 1311.95 2201.65 1301.34 2213.86 1293.89C2226.08 1286.5 2240.54 1282.75 2257.31 1282.75C2279.54 1282.75 2295.99 1287.95 2306.65 1298.39C2317.26 1308.84 2322.61 1323.04 2322.61 1340.98V1381.64C2322.61 1402.53 2326.31 1422.73 2333.76 1442.23V1442.28ZM2265.88 1412.55C2270.38 1409.71 2273.86 1405.75 2276.43 1400.55C2278.95 1395.41 2280.24 1389.2 2280.24 1381.96V1369.7L2253.02 1374.09C2244.45 1375.43 2237.97 1377.95 2233.58 1381.53C2229.19 1385.12 2226.99 1390.37 2226.99 1397.18C2226.99 1403.02 2228.97 1407.78 2232.99 1411.37C2237.01 1414.96 2242.58 1416.78 2249.81 1416.78C2256.08 1416.78 2261.44 1415.39 2265.88 1412.55Z" fill="#00381B"/>
<path d="M2353.09 1316.39V1286.23H2450.54V1316.39H2353.09ZM2424.77 1445.77C2409.56 1445.77 2397.93 1442.02 2389.95 1434.46C2381.97 1426.91 2377.95 1415.93 2377.95 1401.46V1255.32L2421.29 1236.52V1395.09C2421.29 1400.77 2422.63 1405 2425.42 1407.73C2428.15 1410.46 2432.06 1411.86 2437.15 1411.86C2439.08 1411.86 2441.17 1411.7 2443.31 1411.43C2445.45 1411.16 2447.81 1410.62 2450.33 1409.82V1441.43C2446.04 1442.98 2441.86 1444.11 2437.74 1444.8C2433.67 1445.5 2429.33 1445.82 2424.88 1445.82L2424.77 1445.77Z" fill="#00381B"/>
<path d="M2504.38 1261.11C2497.15 1261.11 2491.2 1258.64 2486.54 1253.77C2481.88 1248.89 2479.52 1243.11 2479.52 1236.52C2479.52 1229.93 2481.88 1223.98 2486.54 1219.38C2491.2 1214.77 2497.15 1212.52 2504.38 1212.52C2511.61 1212.52 2517.4 1214.82 2521.79 1219.38C2526.18 1223.98 2528.38 1229.66 2528.38 1236.52C2528.38 1243.38 2526.13 1248.89 2521.63 1253.77C2517.13 1258.64 2511.4 1261.11 2504.38 1261.11ZM2481.88 1442.28V1286.29H2525.22V1442.28H2481.88Z" fill="#00381B"/>
<path d="M2638.41 1445.77C2622.23 1445.77 2608.09 1442.34 2595.98 1435.53C2583.88 1428.73 2574.5 1419.14 2567.91 1406.87C2561.27 1394.61 2557.95 1380.41 2557.95 1364.45C2557.95 1348.48 2561.27 1333.8 2567.91 1321.7C2574.56 1309.59 2583.93 1300.11 2595.98 1293.14C2608.09 1286.23 2622.23 1282.75 2638.41 1282.75C2654.59 1282.75 2668.73 1286.18 2680.84 1292.98C2692.95 1299.84 2702.32 1309.32 2708.91 1321.54C2715.55 1333.75 2718.88 1348 2718.88 1364.39C2718.88 1380.78 2715.55 1394.77 2708.91 1406.98C2702.27 1419.19 2692.89 1428.68 2680.84 1435.53C2668.73 1442.34 2654.59 1445.77 2638.41 1445.77ZM2638.41 1413.3C2645.64 1413.3 2651.91 1411.53 2657.27 1408.05C2662.63 1404.52 2666.81 1399.11 2669.86 1391.82C2672.86 1384.48 2674.41 1375.37 2674.41 1364.45C2674.41 1353.52 2672.91 1343.87 2669.86 1336.64C2666.86 1329.41 2662.63 1324.05 2657.27 1320.57C2651.91 1317.04 2645.59 1315.32 2638.41 1315.32C2631.23 1315.32 2624.91 1317.09 2619.56 1320.57C2614.2 1324.11 2609.97 1329.46 2606.97 1336.64C2603.91 1343.87 2602.41 1353.14 2602.41 1364.45C2602.41 1375.75 2603.91 1384.75 2606.97 1391.98C2609.97 1399.21 2614.2 1404.57 2619.56 1408.05C2624.91 1411.59 2631.23 1413.3 2638.41 1413.3Z" fill="#00381B"/>
<path d="M2849.48 1442.28V1348.05C2849.48 1337.71 2847.12 1329.95 2842.46 1324.8C2837.8 1319.66 2831.53 1317.04 2823.71 1317.04C2814.71 1317.04 2807.64 1319.98 2802.5 1325.82C2797.3 1331.66 2794.73 1339.7 2794.73 1349.82V1442.28H2751.39V1286.29H2791.46V1310.88H2792.91C2796.82 1302.09 2802.82 1295.23 2810.91 1290.25C2819 1285.27 2828.53 1282.8 2839.46 1282.8C2850.39 1282.8 2859.5 1284.89 2867.43 1289.07C2875.36 1293.25 2881.52 1299.73 2886.02 1308.41C2890.52 1317.09 2892.77 1328.29 2892.77 1341.95V1442.34H2849.43L2849.48 1442.28Z" fill="#00381B"/>
</g>
<defs>
<clipPath id="clip0_282_4439">
<rect width="4176" height="1445.77" fill="white"/>
</clipPath>
</defs>
</svg>
